<svg version="1.1" viewBox="0 0 828 619" xmlns="http://www.w3.org/2000/svg">
 <g fill="none" stroke-width="2">
  <path d="m396.46 73.59q2.65 2.22 5.22 4.73c11.27 11 18.9 27.61 17.75 43.17q-0.63 8.57-3.06 17.7a0.32 0.32 0 0 0 0.37 0.4q25.25-4.77 50.76-5.47 70.87-1.95 138.35 18.56 1.4 0.43 0.18-0.38-21.6-14.33-45.56-24.98c-27.16-12.06-55.1-21.57-83.24-31.25q-0.71-0.24-0.73-0.98-0.53-16.2-0.12-33.01 0.35-14.64 0.84-30.07 0.16-5.1 0.01-10.37" stroke="#470000" vector-effect="non-scaling-stroke"/>
  <path d="m477.23 21.64 0.53-10.81q0.04-0.68-0.64-0.74c-25.26-2.47-50.48-4.54-76.11-4.82q-5.09-0.06-10.01-0.24-4.99-0.18-10.03 0.04a0.58 0.58 0 0 0-0.55 0.59q0.36 27.38-0.82 53.36-0.15 3.38-0.04 5.13 0.03 0.51 0.51 0.68 8.81 3.09 16.39 8.76" stroke="#370000" vector-effect="non-scaling-stroke"/>
  <path d="m477.23 21.64q-4.79 0.42-9.73-0.16-8.46-0.99-18-0.67c-1.29 0.05-2.23-0.45-3.19-0.48q-23.72-0.83-46.73-0.49-0.39 0.01-0.4 0.4l-1.47 33.35q-0.14 3.02-0.34 6.04l-0.91 13.96" stroke="#7e0000" vector-effect="non-scaling-stroke"/>
  <path d="m308.49 169.59 0.76 2.65q0.14 0.49 0.63 0.36l3.34-0.89a1.5 1.5 0 0 1 1.75 0.82q0.68 1.47-0.75 2.19c-20.43 10.26-39.2 24.73-52.3 43.96q-9.52 13.98-14.84 27.72" stroke="#7d7d7d" vector-effect="non-scaling-stroke"/>
  <path d="m247.08 246.4q-2.17 4.86-3.24 7.92-6.95 19.77-12.21 40.07-0.1 0.37-0.29 0.71-0.2 0.34-0.37 0.69-0.22 0.46 0.13 0.82 22.74 23.74 38.99 43.53 22.6 27.52 41.78 61.14 16.59 29.08 26.97 54.11 1.04 2.51 1.89 5.01 0.94 2.75 2.12 5.45 2.29 5.24 4 9.83 10.19 27.47 17.31 60.69 7.74 36.12 11.23 70.46 0.29 2.89 0 5.74-0.1 0.88 0.43 0.16 3.87-5.32 8.59-10.43c26.98-29.2 63.26-48.79 101.89-57.21 3.51-0.76 6.43-2.43 10.13-2.59q3.22-0.14 4.8 1.16c3.77 3.13-0.04 7.95-2.88 10.14q-11.32 8.73-18.99 16.82-14.55 15.35-26.62 37.86-0.41 0.76 0.3 0.26 4.47-3.15 9.06-6.11 57.97-37.35 122.19-59.09 32.84-11.12 65.14-16.87 1.42-0.25 0.05-0.71c-6.83-2.27-13.27-5.41-18.95-9.7q-2.62-1.98-5.05-3.86" stroke="#5e5e5e" vector-effect="non-scaling-stroke"/>
  <path d="m625.48 512.4c-13.74-12.2-20.07-32.24-22.08-49.96q-1.37-12.1-0.9-24.79 2.48-66.3 39.24-121.49c3.78-5.67 8.25-11.33 13.1-16.31 9.72-9.97 22.47-12.2 36.02-12.66 34.88-1.19 69 6.26 102.4 17.32q1.43 0.47 2.49-0.6 8.03-8.07 13.57-17.46" stroke="#7d7d7d" vector-effect="non-scaling-stroke"/>
  <path d="m809.32 286.45q7.51-11.97 10.35-25.77 0.94-4.57-0.07-7.28c-1.48-3.99-5.75-6.45-9.6-7.63q-24.48-7.56-49.5-13.14-0.37-0.09-1.54 0.02" stroke="#141414" vector-effect="non-scaling-stroke"/>
  <path d="m758.96 232.65q0.22 0.11 0.06-0.18-0.08-0.14-0.24-0.18-34.95-8.85-70.77-11.02-10.17-0.62-20.29-1.36-0.13-0.01-0.13-0.14v-0.28q0-0.45 0.45-0.48 6.77-0.45 16.71 0.02 22.82 1.08 43.85 3.73 1.31 0.16 0.3-0.69-15.99-13.58-34.31-24.42c-41.11-24.35-85.87-41.72-132.92-50.91q-15.29-2.99-20.53-3.76-43.87-6.39-85.89-3.73-17.34 1.09-39.38 3.57-0.5 0.05-0.66 0.53-3.87 11.36-9.47 22.25-0.41 0.81-1.3 0.92-0.73 0.09-1.08-0.86a1.52 1.5 46 0 1 0.01-1.05q4.33-11.08 6.52-21.51 0.61-2.89 0.78-6.18c0.26-4.96 1.01-9.88 0.8-14.73-0.91-21.8-13.1-44.09-34.44-51.73q-4.91-1.76-10.17-1.36" stroke="#7d7d7d" vector-effect="non-scaling-stroke"/>
  <path d="m366.86 69.1q-5.52-0.51-11.86 1.92c-28.33 10.83-44.08 37.88-47.09 66.98q-1.64 15.78 0.58 31.59" stroke="#141414" vector-effect="non-scaling-stroke"/>
  <path d="m366.86 69.1q5.96 2.41 10 7.8c15.77 21.08 16.15 49.3 5.51 72.68-2.25 4.96-6.32 7.82-11.33 10.09-13.18 5.96-27.88 8.5-42.29 9.26q-15.44 0.81-20.26 0.66" stroke="#919191" vector-effect="non-scaling-stroke"/>
  <path d="m758.96 232.65c-11.88 5.95-12.78 19.58-5.82 29.64 10.51 15.2 30.56 23.61 48.75 24.61q1.47 0.08 3.7-0.19 1.87-0.23 3.73-0.26" stroke="#919191" vector-effect="non-scaling-stroke"/>
  <path d="m625.48 512.4q-1.55 0.63-3.41 1.06-61.55 14.25-113.23 47.98-0.52 0.33-0.13-0.15 5.05-6.25 10.45-12.39c9.43-10.72 19.9-19.37 31.85-26.58q0.73-0.44-0.12-0.52-5.16-0.49-10.18-0.21-16.22 0.91-33.26 3.1c-25.89 3.32-50.85 7.46-76.19 14.15q-9.76 2.57-17.95 5.63-0.47 0.18-0.63-0.3-13.52-41.99-32.4-83.69-36.86-81.38-86.48-154.26-20.53-30.17-46.72-59.82" stroke="#dbdbdb" vector-effect="non-scaling-stroke"/>
  <path d="m97.38 374.75-1.26 7.95q-0.08 0.51-0.6 0.53l-68.74 2.99" stroke="#470000" vector-effect="non-scaling-stroke"/>
  <path d="m26.78 386.22-21.39 1.62a0.51 0.51 0 0 0-0.46 0.6q1.4 7.86 2.35 15.4 2.99 23.63 5.52 46.22 0.83 7.38 1.22 15.12 0.03 0.51 0.54 0.53 3.19 0.1 6.19 0.02 15.88-0.45 32.93-1.41 26.52-1.49 53.31-3.2 0.46-0.03 0.65 0.39 0.43 0.96 0.76 1.95 11.07 34.11 29.05 63.33 12.74 20.69 29.66 36.59 20.57 19.33 44.54 34.3 1.91 1.2 0.67-0.69l-7.24-11.04" stroke="#370000" vector-effect="non-scaling-stroke"/>
  <path d="m205.08 585.95c-19.84-34.33-31.16-71.09-39.34-110.22q-1.19-5.71-1.96-11.35a0.42 0.42 0 0 1 0.39-0.48q6.86-0.52 13.59-0.7 62.6-1.65 138.92-2.63 7.04-0.09 13.59-0.28a0.5 0.5 0 0 0 0.44-0.71q-19.09-42.14-44.8-80.54-0.58-0.85-1.6-0.8c-6.1 0.33-12.43-0.32-18.4-0.23q-29.59 0.41-57.4 0.82-10.82 0.16-20.03-0.02-10.25-0.2-20.63-0.66-1.11-0.05-0.98-1.16c1.16-10.15 3.87-20.54 6.95-31.95q4.29-15.88 10.23-29.42 25.22-57.48 70.89-99.64c2.6-2.41 4.35-5.03 6.45-7.87 11.29-15.29 26.77-28.06 45.1-34.15a0.58 0.58 0 0 0 0.37-0.73q-1.84-5.36-2.42-11.22-2.2-22.49 4.05-44.42" stroke="#470000" vector-effect="non-scaling-stroke"/>
  <path d="m308.49 117.59q2.71-8.63 7.13-16.75a0.22 0.22 0 0 0-0.24-0.32q-41.22 9.95-77.41 31.73-18.25 10.98-29.8 19.72" stroke="#370000" vector-effect="non-scaling-stroke"/>
  <path d="m208.17 151.97-1.82 1.43q-0.43 0.34-0.83-0.04c-6.91-6.62-13.46-13.87-19.65-20.98q-11.81-13.58-23.56-26.84" stroke="#470000" vector-effect="non-scaling-stroke"/>
  <path d="m162.31 105.54-11.85-14.59a0.59 0.59 0 0 0-0.89-0.03c-6.46 6.78-13.8 12.71-20.29 19.29q-27.46 27.84-51.33 56.09a0.73 0.72-47.4 0 0 0.04 0.98q29.21 28.39 60.91 57.84 1.94 1.8 3.9 3.83a0.57 0.56-50.5 0 1 0.06 0.7q-11.28 16.71-18.46 35.43-20.37 53.14-27.02 109.67" stroke="#370000" vector-effect="non-scaling-stroke"/>
  <g stroke="#7e0000">
   <path d="m162.31 105.54q-6.37 7.03-13.7 13.07-3.77 3.11-15.47 15.44-1.25 1.31-4.8 5.38-2.38 2.72-4.96 5.26c-2.38 2.34-4.13 5.01-6.44 7.39q-2.24 2.32-4.28 4.94-2.19 2.82-5.03 5.4a0.92 0.92 0 0 0-0.02 1.34q4.51 4.35 8.53 7.92c7.06 6.25 13.68 13.01 20.47 19.67q0.79 0.78 1.66 1.58 8.11 7.43 16.41 15.56 3.35 3.28 7.61 7.01 3.78 3.31 7.47 7.15c1.43 1.48 3.16 2.36 4.55 3.94a1.71 1.7 43.3 0 1 0.07 2.17q-29.41 38.02-50.52 81.22-12.31 25.18-21.52 51.87-1.71 4.96-3.16 9.55-0.02 0.08-0.1 0.11-0.06 0.02-0.1-0.03-0.17-0.23-0.13 0.05 0.04 0.27 0.06 0.53 0.01 0.17-0.08 0.31-0.14 0.23-0.33 0.22-0.51-0.02-0.32 0.51 0.46 1.3-0.8 1.65" vector-effect="non-scaling-stroke"/>
   <path d="m205.08 585.95q-5.2-4.34-6.44-6.35-0.81-1.32-2.6-3.39-8.02-9.3-17.7-22.33-19.69-26.51-32.87-52.54-4.22-8.33-8.4-18.53c-0.55-1.36-0.88-2.73-1.52-4.07q-0.73-1.5-1.24-3.15-1.07-3.46-2.66-7.67-0.13-0.35-0.06-0.73 0.09-0.48-0.21-0.85-0.81-1.01-0.79-2.25 0.01-0.58-0.3-1.07-0.78-1.2-0.68-2.59a1.41 1.4 30.7 0 0-0.22-0.85q-0.96-1.52-0.8-3.24 0.03-0.37-0.17-0.68c-0.92-1.39-0.72-2.82-1.12-4.33q-1.21-4.55-1.88-9.08a1.13 1.13 0 0 0-1.14-0.97c-2.73 0.06-5.49-0.3-8.18-0.24q-16.64 0.35-34.2 0.37c-1.32 0-2.58 0.44-3.9 0.5q-12.74 0.6-25.66 0.5-0.54 0-1.03 0.22-0.61 0.28-1.31 0.31-8.41 0.38-17.22 0.58a1.15 1.15 0 0 1-1.17-1.26q0.18-2.12-0.34-4.1-0.57-2.15-0.66-4.29-0.09-2.11-0.61-4.26c-0.5-2.09-0.24-4.06-0.68-6.15q-0.84-4-0.75-8.57c0.02-0.83-0.51-1.62-0.57-2.39q-0.52-7.2-0.45-14.45 0.01-0.5-0.2-0.94-0.47-1.02-0.38-2.36 0.22-3.51-0.19-8.53" vector-effect="non-scaling-stroke"/>
   <path d="m308.49 117.59q-3.46 0.75-6.74 1.51-41.1 9.55-79.41 27.17-0.08 0.04-4.45 2.24-4.49 2.27-9.72 3.46" vector-effect="non-scaling-stroke"/>
  </g>
  <path d="m770.38 320.84c0.31 1.06-0.15 1.94 0.02 3.02q0.45 2.89 0.34 5.67-1.13 26.34-15.18 48.54-0.25 0.4 0.15 0.14c17.5-11.22 28.88-29.3 34.13-49.1 1.64-6.17 1.61-12.09 2.21-18.22q0.05-0.53-0.47-0.63-7.56-1.49-15.13-3.25-21.62-5.06-44.45-8.29c-17.36-2.46-35.73-3.08-53.09-0.06q-9.43 1.64-16.23 8.55-6.74 6.86-12.44 15.98a0.7 0.7 0 0 0 0.66 1.07q1.57-0.14 3.09 0.22 7.44 1.8 15.27 2.24 5.24 0.29 10.22 0.53 2.02 0.1 4.31 1.04 1.7 0.69 2.8 2.66 1.23 2.21 2.09 4.55 6.11 16.63 4.42 33.55-0.09 0.96-0.43 1.92-0.25 0.69 0.31 0.21c1.57-1.32 2.14-3.06 3.4-4.61q6.23-7.64 10.48-20.41 4.5-13.5 6.49-23.64 0.36-1.84 2.29-1.87 5.9-0.09 11.62 0.21 18.17 0.98 35.8-1.16 2.26-0.27 6.55 0.45 0.6 0.1 0.77 0.69" stroke="#7d7d7d" vector-effect="non-scaling-stroke"/>
  <path d="m678.23 441.25c1.65 1.35 1.96 3.54 2.27 5.56q3.7 24.38-3.4 46.78a0.53 0.52 17.6 0 0 0.34 0.65q14.07 4.42 28.62 4.74 7.95 0.18 17.4-0.27a1.8 1.79-80.4 0 0 1.57-1.12c4.16-10.31 8.64-20.04 11.61-30.64q0.14-0.5-0.02-1-5.61-16.44-5.24-33.18 0.72-32.37 11.77-58.4 7.1-16.71 20.23-40.22 0.96-1.71 0.99-3.22 0.04-1.95 0.33-3.91 0.1-0.68-0.59-0.64c-2.1 0.12-4.16 0.34-6.23 0.3q-8.59-0.15-16.03-0.31-9.68-0.22-22.19-1.79-0.53-0.07-0.65 0.46-2.53 11.29-7.91 24.77c-3.6 9.02-11.35 23.75-20.45 26.57a1.13 1.12-11.9 0 1-1.45-0.94q-0.59-4.87-0.62-10.14c-0.08-11.37-2.5-22.12-6.83-33.06q-0.2-0.52-0.76-0.43-3.92 0.61-7.37 0.4-12.14-0.72-23.3-4.09a1.1 1.09 24.3 0 0-1.23 0.46q-36.37 57.9-33.52 126.16 0.29 6.92 2.18 16.41 0.1 0.5 0.48 0.84c6.2 5.29 14.48 9.52 22.47 10.27q1.64 0.15 3.02-0.75 6.85-4.48 12.03-8.92 10.49-8.99 17.18-22.89 1.6-3.32 2.16-7.22a1.94 1.94 0 0 1 3.14-1.23" stroke="#141414" vector-effect="non-scaling-stroke"/>
  <g stroke="#7d7d7d">
   <path d="m726.92 501.86q-1.42 0.61-2.97 0.81-25.97 3.3-50.45-4.13-2.34-0.71-3.17-2.56-0.21-0.46-0.03-0.93 8.16-21.54 7.29-44.81-0.03-0.67-0.28-0.05-7.18 17.63-21.85 29.28-4.64 3.67-10.42 6.4-2.36 1.11-4.96 0.82-11.85-1.33-21.93-8.72-1.15-0.84-0.73 0.51c4.95 16.36 14.75 29.53 30.82 35.88q15.16 5.99 35.73 8.25 10.91 1.2 18.96 1.02 9.21-0.19 20.33 0.13 5.38 0.15 9.91-0.67 8.75-1.59 17.92-3.14 0.57-0.09 0.79-0.62 3.28-7.99 5.46-17.35c5.19-22.24-3.59-46.83-13.69-66.42q-0.28-0.54-0.18 0.06c3.44 20.76-3.26 43.78-13.41 61.85q-0.48 0.84-1.24 1.44-0.9 0.7-1.08 1.9-0.12 0.75-0.82 1.05" vector-effect="non-scaling-stroke"/>
   <path d="m580.37 256.33q18.05 2.9 36.45 4c5.11 0.31 9.98 0.05 14.93-0.67a0.6 0.59-12.3 0 0 0.49-0.75c-4.75-16.61-17.21-29.94-31.5-39.3q-31.41-20.57-67.42-27.55-5.18-1-15.54-2.01-0.54-0.06-0.93-0.42c-10.87-9.97-23.8-19.36-37.5-24.79q-1.22-0.48-2.51-0.38-2.96 0.24-0.4 1.75c10.64 6.31 19.96 13.9 28.56 22.99q0.45 0.48-0.19 0.33-0.9-0.21-1.81-0.23-10.4-0.32-21.27 0.49-2.94 0.22-5.82 1.08-0.7 0.21-0.78 0.94a0.83 0.83 0 0 0 0.67 0.9q6.62 1.22 13.45 1.08a0.7 0.69 83.1 0 1 0.7 0.56c2.63 13.13 6.63 26.81 14.36 37.61 2.72 3.79 7.71 5.93 11.89 7.72 16.1 6.9 33.58 11.2 51.18 14.33a2.98 2.93-17.2 0 1 1.59 0.82c10.59 10.48 19.98 22.22 29.26 34.11q0.29 0.37 0.76 0.35 0.39-0.02 0.6-0.34 0.25-0.37 0.08-0.79c-4.76-11.49-11.65-21.81-19.6-31.31q-0.56-0.66 0.3-0.52" vector-effect="non-scaling-stroke"/>
   <path d="m563.55 207.92q-34.05-14.63-70.68-14.08-0.56 0.01-0.41 0.54c3.37 12.22 8.1 25.55 15.85 35.53q2.64 3.39 6.46 4.88 18.33 7.15 35.92 10.87 31.07 6.57 61.8 9.1 5.3 0.43 10.83 0.91a0.52 0.52 0 0 0 0.48-0.8c-14.72-22.87-35.33-36.23-60.25-46.95" vector-effect="non-scaling-stroke"/>
  </g>
 </g>
 <path d="m406.56 0h28.54q9.8 0.43 19.59 0.91 14.92 0.74 29.72 2.85 0.5 0.07 0.49 0.57-0.11 14.78-0.73 29.54-0.52 12.63-1.04 25.25-0.65 16.03-2.35 33.12a0.25 0.24-80.4 0 0 0.18 0.26c54.15 11.86 106.48 32.97 148.81 67.17q2.82 2.28 6.04 3.52c23.3 8.98 45.87 20.48 66.97 33.5q18.89 11.65 34.7 26.22a2.07 2.04 69.2 0 0 1.2 0.55c22.74 2.34 44.86 7.54 67.04 13.74 9.13 2.55 19.53 6.6 21.19 16.86q0.89 5.46-2.09 15.01-5.76 18.52-18.39 33.64-3.54 4.24-7.11 8.14-0.36 0.39-0.27 0.9 0.42 2.5 0.21 4.97-1.8 21.25-13.52 36.78c-7.51 9.96-16.84 18.87-27.43 25.68q-2.68 1.73-5.46 2.89-3.43 1.44-1.69-1.84c6.66-12.61 11.93-25.68 13.9-39.51q0.23-1.6-0.54-0.17-7.21 13.49-14.08 27.91-4.81 10.11-7.44 18.47-8.35 26.62-7.15 53.28 0.15 3.28 0.52 6.46c0.53 4.57 1.85 8.93 2.76 13.33q0.46 2.23 0.93 0 3.13-14.91-0.2-31.09a0.77 0.77 0 0 1 0.73-0.92l0.44-0.01q0.45-0.01 0.71 0.36 9.73 14.41 16.43 32.25 6.84 18.22 5.71 34.98-0.8 11.86-7.1 22.76-0.44 0.77 0.43 0.68l1.11-0.11q0.71-0.07 1.18 0.48 0.41 0.49 0.19 1.15-0.14 0.43-0.54 0.62c-15.33 7.45-33.06 13.05-50.29 13.36q-13.38 0.24-26.67-1.29c-1.9-0.22-3.33 0.36-5.19 0.56-38.15 4.03-76.47 11.84-112.43 24.18q-42.1 14.44-81.54 35.88-15.28 8.3-32.83 18.36a0.83 0.83 0 0 1-1.23-0.84q0.38-2.59 1.57-5.05 13.72-28.26 35.05-52.63 0.41-0.47-0.2-0.35-54.05 10.29-93.48 47.12c-6.17 5.77-11.66 12-17.52 17.95a0.82 0.81 57.4 0 1-1.34-0.3q-2.01-5.58-2.93-11.09-3.22-19.13-6.42-36.53c-6.65-36.03-15.52-69.59-29.34-102.21a0.84 0.83-10.7 0 0-0.76-0.51q-23.21-0.13-47.1 0.38-9.13 0.2-17.67 0.08c-1.14-0.02-2.21 0.28-3.33 0.28q-28 0-56 0.13c-13.19 0.07-26.17 0.12-38.92 0.12q-0.39 0-0.3 0.39c5.19 22.38 10.04 42.77 17.66 65.02q16.69 48.69 49.97 83.65 0.91 0.94-0.34 0.53-3.57-1.18-7.37-2.76c-28.8-11.92-53.68-31.15-75.28-54.18q-13.22-14.09-23.72-32.47-10.76-18.85-18.04-37.43-4.33-11.07-8.41-23.1-0.2-0.58-0.8-0.51c-33.11 3.92-65.2 4.32-98.1 3.75a0.47 0.46-2.9 0 1-0.45-0.4q-0.89-7.72-1.11-15.24-0.36-12.83-1.04-26.75-0.44-9.03-3.25-44.52v-2.83q33.04-4.11 64.49-5.4 11.77-0.48 26.12-0.33 0.5 0.01 0.55-0.5 3.74-38.17 14.26-76.03 7.8-28.04 18.18-51.05 4.28-9.5 9.47-17.75 0.26-0.42-0.1-0.76-26.91-25.72-53.09-52.42-4.48-4.58-8.74-9.27a1.01 1.01 0 0 1-0.07-1.28q22.32-30.58 47.2-56.85 9.16-9.69 18.74-19.74 4.88-5.11 10.88-9.26a1.14 1.13 51.7 0 1 1.49 0.18q22.83 25.73 48.86 52.53 5.25 5.41 10.78 11.7 0.36 0.41 0.78 0.05 4.59-3.95 9.67-7.63c30.01-21.72 65.43-37.46 101.06-46q0.6-0.14 0.96-0.64c11.55-15.53 30.83-29.79 51.2-28.08q0.54 0.04 0.56-0.5 1.57-30.39 3.97-60.77 0.04-0.53 0.57-0.56l28.77-1.54zm-10.1 73.59q2.65 2.22 5.22 4.73c11.27 11 18.9 27.61 17.75 43.17q-0.63 8.57-3.06 17.7a0.32 0.32 0 0 0 0.37 0.4q25.25-4.77 50.76-5.47 70.87-1.95 138.35 18.56 1.4 0.43 0.18-0.38-21.6-14.33-45.56-24.98c-27.16-12.06-55.1-21.57-83.24-31.25q-0.71-0.24-0.73-0.98-0.53-16.2-0.12-33.01 0.35-14.64 0.84-30.07 0.16-5.1 0.01-10.37l0.53-10.81q0.04-0.68-0.64-0.74c-25.26-2.47-50.48-4.54-76.11-4.82q-5.09-0.06-10.01-0.24-4.99-0.18-10.03 0.04a0.58 0.58 0 0 0-0.55 0.59q0.36 27.38-0.82 53.36-0.15 3.38-0.04 5.13 0.03 0.51 0.51 0.68 8.81 3.09 16.39 8.76zm-87.97 96 0.76 2.65q0.14 0.49 0.63 0.36l3.34-0.89a1.5 1.5 0 0 1 1.75 0.82q0.68 1.47-0.75 2.19c-20.43 10.26-39.2 24.73-52.3 43.96q-9.52 13.98-14.84 27.72-2.17 4.86-3.24 7.92-6.95 19.77-12.21 40.07-0.1 0.37-0.29 0.71-0.2 0.34-0.37 0.69-0.22 0.46 0.13 0.82 22.74 23.74 38.99 43.53 22.6 27.52 41.78 61.14 16.59 29.08 26.97 54.11 1.04 2.51 1.89 5.01 0.94 2.75 2.12 5.45 2.29 5.24 4 9.83 10.19 27.47 17.31 60.69 7.74 36.12 11.23 70.46 0.29 2.89 0 5.74-0.1 0.88 0.43 0.16 3.87-5.32 8.59-10.43c26.98-29.2 63.26-48.79 101.89-57.21 3.51-0.76 6.43-2.43 10.13-2.59q3.22-0.14 4.8 1.16c3.77 3.13-0.04 7.95-2.88 10.14q-11.32 8.73-18.99 16.82-14.55 15.35-26.62 37.86-0.41 0.76 0.3 0.26 4.47-3.15 9.06-6.11 57.97-37.35 122.19-59.09 32.84-11.12 65.14-16.87 1.42-0.25 0.05-0.71c-6.83-2.27-13.27-5.41-18.95-9.7q-2.62-1.98-5.05-3.86c-13.74-12.2-20.07-32.24-22.08-49.96q-1.37-12.1-0.9-24.79 2.48-66.3 39.24-121.49c3.78-5.67 8.25-11.33 13.1-16.31 9.72-9.97 22.47-12.2 36.02-12.66 34.88-1.19 69 6.26 102.4 17.32q1.43 0.47 2.49-0.6 8.03-8.07 13.57-17.46 7.51-11.97 10.35-25.77 0.94-4.57-0.07-7.28c-1.48-3.99-5.75-6.45-9.6-7.63q-24.48-7.56-49.5-13.14-0.37-0.09-1.54 0.02 0.22 0.11 0.06-0.18-0.08-0.14-0.24-0.18-34.95-8.85-70.77-11.02-10.17-0.62-20.29-1.36-0.13-0.01-0.13-0.14v-0.28q0-0.45 0.45-0.48 6.77-0.45 16.71 0.02 22.82 1.08 43.85 3.73 1.31 0.16 0.3-0.69-15.99-13.58-34.31-24.42c-41.11-24.35-85.87-41.72-132.92-50.91q-15.29-2.99-20.53-3.76-43.87-6.39-85.89-3.73-17.34 1.09-39.38 3.57-0.5 0.05-0.66 0.53-3.87 11.36-9.47 22.25-0.41 0.81-1.3 0.92-0.73 0.09-1.08-0.86a1.52 1.5 46 0 1 0.01-1.05q4.33-11.08 6.52-21.51 0.61-2.89 0.78-6.18c0.26-4.96 1.01-9.88 0.8-14.73-0.91-21.8-13.1-44.09-34.44-51.73q-4.91-1.76-10.17-1.36-5.52-0.51-11.86 1.92c-28.33 10.83-44.08 37.88-47.09 66.98q-1.64 15.78 0.58 31.59zm-211.11 205.16-1.26 7.95q-0.08 0.51-0.6 0.53l-68.74 2.99-21.39 1.62a0.51 0.51 0 0 0-0.46 0.6q1.4 7.86 2.35 15.4 2.99 23.63 5.52 46.22 0.83 7.38 1.22 15.12 0.03 0.51 0.54 0.53 3.19 0.1 6.19 0.02 15.88-0.45 32.93-1.41 26.52-1.49 53.31-3.2 0.46-0.03 0.65 0.39 0.43 0.96 0.76 1.95 11.07 34.11 29.05 63.33 12.74 20.69 29.66 36.59 20.57 19.33 44.54 34.3 1.91 1.2 0.67-0.69l-7.24-11.04c-19.84-34.33-31.16-71.09-39.34-110.22q-1.19-5.71-1.96-11.35a0.42 0.42 0 0 1 0.39-0.48q6.86-0.52 13.59-0.7 62.6-1.65 138.92-2.63 7.04-0.09 13.59-0.28a0.5 0.5 0 0 0 0.44-0.71q-19.09-42.14-44.8-80.54-0.58-0.85-1.6-0.8c-6.1 0.33-12.43-0.32-18.4-0.23q-29.59 0.41-57.4 0.82-10.82 0.16-20.03-0.02-10.25-0.2-20.63-0.66-1.11-0.05-0.98-1.16c1.16-10.15 3.87-20.54 6.95-31.95q4.29-15.88 10.23-29.42 25.22-57.48 70.89-99.64c2.6-2.41 4.35-5.03 6.45-7.87 11.29-15.29 26.77-28.06 45.1-34.15a0.58 0.58 0 0 0 0.37-0.73q-1.84-5.36-2.42-11.22-2.2-22.49 4.05-44.42 2.71-8.63 7.13-16.75a0.22 0.22 0 0 0-0.24-0.32q-41.22 9.95-77.41 31.73-18.25 10.98-29.8 19.72l-1.82 1.43q-0.43 0.34-0.83-0.04c-6.91-6.62-13.46-13.87-19.65-20.98q-11.81-13.58-23.56-26.84l-11.85-14.59a0.59 0.59 0 0 0-0.89-0.03c-6.46 6.78-13.8 12.71-20.29 19.29q-27.46 27.84-51.33 56.09a0.73 0.72-47.4 0 0 0.04 0.98q29.21 28.39 60.91 57.84 1.94 1.8 3.9 3.83a0.57 0.56-50.5 0 1 0.06 0.7q-11.28 16.71-18.46 35.43-20.37 53.14-27.02 109.67zm130.81-78.31q1.43-8.61 2.97-15.77 5.12-23.71 14.4-45.21a0.04 0.04 0 0 0-0.06-0.04c-15.92 16.44-29.48 34.86-41.52 54.52q-15.39 25.15-23.51 51.92-4.52 14.92-8.13 30.56-0.11 0.48 0.37 0.47l107.23-2.04a0.35 0.35 0 0 0 0.29-0.54c-16.44-24.38-33.12-48.57-51.4-71.41a3.13 3.11 30.6 0 1-0.64-2.46zm542.19 24.4c0.31 1.06-0.15 1.94 0.02 3.02q0.45 2.89 0.34 5.67-1.13 26.34-15.18 48.54-0.25 0.4 0.15 0.14c17.5-11.22 28.88-29.3 34.13-49.1 1.64-6.17 1.61-12.09 2.21-18.22q0.05-0.53-0.47-0.63-7.56-1.49-15.13-3.25-21.62-5.06-44.45-8.29c-17.36-2.46-35.73-3.08-53.09-0.06q-9.43 1.64-16.23 8.55-6.74 6.86-12.44 15.98a0.7 0.7 0 0 0 0.66 1.07q1.57-0.14 3.09 0.22 7.44 1.8 15.27 2.24 5.24 0.29 10.22 0.53 2.02 0.1 4.31 1.04 1.7 0.69 2.8 2.66 1.23 2.21 2.09 4.55 6.11 16.63 4.42 33.55-0.09 0.96-0.43 1.92-0.25 0.69 0.31 0.21c1.57-1.32 2.14-3.06 3.4-4.61q6.23-7.64 10.48-20.41 4.5-13.5 6.49-23.64 0.36-1.84 2.29-1.87 5.9-0.09 11.62 0.21 18.17 0.98 35.8-1.16 2.26-0.27 6.55 0.45 0.6 0.1 0.77 0.69zm-92.15 120.41c1.65 1.35 1.96 3.54 2.27 5.56q3.7 24.38-3.4 46.78a0.53 0.52 17.6 0 0 0.34 0.65q14.07 4.42 28.62 4.74 7.95 0.18 17.4-0.27a1.8 1.79-80.4 0 0 1.57-1.12c4.16-10.31 8.64-20.04 11.61-30.64q0.14-0.5-0.02-1-5.61-16.44-5.24-33.18 0.72-32.37 11.77-58.4 7.1-16.71 20.23-40.22 0.96-1.71 0.99-3.22 0.04-1.95 0.33-3.91 0.1-0.68-0.59-0.64c-2.1 0.12-4.16 0.34-6.23 0.3q-8.59-0.15-16.03-0.31-9.68-0.22-22.19-1.79-0.53-0.07-0.65 0.46-2.53 11.29-7.91 24.77c-3.6 9.02-11.35 23.75-20.45 26.57a1.13 1.12-11.9 0 1-1.45-0.94q-0.59-4.87-0.62-10.14c-0.08-11.37-2.5-22.12-6.83-33.06q-0.2-0.52-0.76-0.43-3.92 0.61-7.37 0.4-12.14-0.72-23.3-4.09a1.1 1.09 24.3 0 0-1.23 0.46q-36.37 57.9-33.52 126.16 0.29 6.92 2.18 16.41 0.1 0.5 0.48 0.84c6.2 5.29 14.48 9.52 22.47 10.27q1.64 0.15 3.02-0.75 6.85-4.48 12.03-8.92 10.49-8.99 17.18-22.89 1.6-3.32 2.16-7.22a1.94 1.94 0 0 1 3.14-1.23zm48.69 60.61q-1.42 0.61-2.97 0.81-25.97 3.3-50.45-4.13-2.34-0.71-3.17-2.56-0.21-0.46-0.03-0.93 8.16-21.54 7.29-44.81-0.03-0.67-0.28-0.05-7.18 17.63-21.85 29.28-4.64 3.67-10.42 6.4-2.36 1.11-4.96 0.82-11.85-1.33-21.93-8.72-1.15-0.84-0.73 0.51c4.95 16.36 14.75 29.53 30.82 35.88q15.16 5.99 35.73 8.25 10.91 1.2 18.96 1.02 9.21-0.19 20.33 0.13 5.38 0.15 9.91-0.67 8.75-1.59 17.92-3.14 0.57-0.09 0.79-0.62 3.28-7.99 5.46-17.35c5.19-22.24-3.59-46.83-13.69-66.42q-0.28-0.54-0.18 0.06c3.44 20.76-3.26 43.78-13.41 61.85q-0.48 0.84-1.24 1.44-0.9 0.7-1.08 1.9-0.12 0.75-0.82 1.05z"/>
 <path d="m477.23 21.64q-4.79 0.42-9.73-0.16-8.46-0.99-18-0.67c-1.29 0.05-2.23-0.45-3.19-0.48q-23.72-0.83-46.73-0.49-0.39 0.01-0.4 0.4l-1.47 33.35q-0.14 3.02-0.34 6.04l-0.91 13.96q-7.58-5.67-16.39-8.76-0.48-0.17-0.51-0.68-0.11-1.75 0.04-5.13 1.18-25.98 0.82-53.36a0.58 0.58 0 0 1 0.55-0.59q5.04-0.22 10.03-0.04 4.92 0.18 10.01 0.24c25.63 0.28 50.85 2.35 76.11 4.82q0.68 0.06 0.64 0.74z" fill="#6d0000"/>
 <path d="m477.23 21.64q0.15 5.27-0.01 10.37-0.49 15.43-0.84 30.07-0.41 16.81 0.12 33.01 0.02 0.74 0.73 0.98c28.14 9.68 56.08 19.19 83.24 31.25q23.96 10.65 45.56 24.98 1.22 0.81-0.18 0.38-67.48-20.51-138.35-18.56-25.51 0.7-50.76 5.47a0.32 0.32 0 0 1-0.37-0.4q2.43-9.13 3.06-17.7c1.15-15.56-6.48-32.17-17.75-43.17q-2.57-2.51-5.22-4.73l0.91-13.96q0.2-3.02 0.34-6.04l1.47-33.35q0.01-0.39 0.4-0.4 23.01-0.34 46.73 0.49c0.96 0.03 1.9 0.53 3.19 0.48q9.54-0.32 18 0.67 4.94 0.58 9.73 0.16z" fill="#8e0000"/>
 <path d="m366.86 69.1q5.96 2.41 10 7.8c15.77 21.08 16.15 49.3 5.51 72.68-2.25 4.96-6.32 7.82-11.33 10.09-13.18 5.96-27.88 8.5-42.29 9.26q-15.44 0.81-20.26 0.66-2.22-15.81-0.58-31.59c3.01-29.1 18.76-56.15 47.09-66.98q6.34-2.43 11.86-1.92z" fill="#282828"/>
 <path d="m758.96 232.65c-11.88 5.95-12.78 19.58-5.82 29.64 10.51 15.2 30.56 23.61 48.75 24.61q1.47 0.08 3.7-0.19 1.87-0.23 3.73-0.26-5.54 9.39-13.57 17.46-1.06 1.07-2.49 0.6c-33.4-11.06-67.52-18.51-102.4-17.32-13.55 0.46-26.3 2.69-36.02 12.66-4.85 4.98-9.32 10.64-13.1 16.31q-36.76 55.19-39.24 121.49-0.47 12.69 0.9 24.79c2.01 17.72 8.34 37.76 22.08 49.96q-1.55 0.63-3.41 1.06-61.55 14.25-113.23 47.98-0.52 0.33-0.13-0.15 5.05-6.25 10.45-12.39c9.43-10.72 19.9-19.37 31.85-26.58q0.73-0.44-0.12-0.52-5.16-0.49-10.18-0.21-16.22 0.91-33.26 3.1c-25.89 3.32-50.85 7.46-76.19 14.15q-9.76 2.57-17.95 5.63-0.47 0.18-0.63-0.3-13.52-41.99-32.4-83.69-36.86-81.38-86.48-154.26-20.53-30.17-46.72-59.82 5.32-13.74 14.84-27.72c13.1-19.23 31.87-33.7 52.3-43.96q1.43-0.72 0.75-2.19a1.5 1.5 0 0 0-1.75-0.82l-3.34 0.89q-0.49 0.13-0.63-0.36l-0.76-2.65q4.82 0.15 20.26-0.66c14.41-0.76 29.11-3.3 42.29-9.26 5.01-2.27 9.08-5.13 11.33-10.09 10.64-23.38 10.26-51.6-5.51-72.68q-4.04-5.39-10-7.8 5.26-0.4 10.17 1.36c21.34 7.64 33.53 29.93 34.44 51.73 0.21 4.85-0.54 9.77-0.8 14.73q-0.17 3.29-0.78 6.18-2.19 10.43-6.52 21.51a1.52 1.5 46 0 0-0.01 1.05q0.35 0.95 1.08 0.86 0.89-0.11 1.3-0.92 5.6-10.89 9.47-22.25 0.16-0.48 0.66-0.53 22.04-2.48 39.38-3.57 42.02-2.66 85.89 3.73 5.24 0.77 20.53 3.76c47.05 9.19 91.81 26.56 132.92 50.91q18.32 10.84 34.31 24.42 1.01 0.85-0.3 0.69-21.03-2.65-43.85-3.73-9.94-0.47-16.71-0.02-0.45 0.03-0.45 0.48v0.28q0 0.13 0.13 0.14 10.12 0.74 20.29 1.36 35.82 2.17 70.77 11.02 0.16 0.04 0.24 0.18 0.16 0.29-0.06 0.18zm-178.59 23.68q18.05 2.9 36.45 4c5.11 0.31 9.98 0.05 14.93-0.67a0.6 0.59-12.3 0 0 0.49-0.75c-4.75-16.61-17.21-29.94-31.5-39.3q-31.41-20.57-67.42-27.55-5.18-1-15.54-2.01-0.54-0.06-0.93-0.42c-10.87-9.97-23.8-19.36-37.5-24.79q-1.22-0.48-2.51-0.38-2.96 0.24-0.4 1.75c10.64 6.31 19.96 13.9 28.56 22.99q0.45 0.48-0.19 0.33-0.9-0.21-1.81-0.23-10.4-0.32-21.27 0.49-2.94 0.22-5.82 1.08-0.7 0.21-0.78 0.94a0.83 0.83 0 0 0 0.67 0.9q6.62 1.22 13.45 1.08a0.7 0.69 83.1 0 1 0.7 0.56c2.63 13.13 6.63 26.81 14.36 37.61 2.72 3.79 7.71 5.93 11.89 7.72 16.1 6.9 33.58 11.2 51.18 14.33a2.98 2.93-17.2 0 1 1.59 0.82c10.59 10.48 19.98 22.22 29.26 34.11q0.29 0.37 0.76 0.35 0.39-0.02 0.6-0.34 0.25-0.37 0.08-0.79c-4.76-11.49-11.65-21.81-19.6-31.31q-0.56-0.66 0.3-0.52z" fill="#f9f9f9"/>
 <path d="m162.31 105.54q-6.37 7.03-13.7 13.07-3.77 3.11-15.47 15.44-1.25 1.31-4.8 5.38-2.38 2.72-4.96 5.26c-2.38 2.34-4.13 5.01-6.44 7.39q-2.24 2.32-4.28 4.94-2.19 2.82-5.03 5.4a0.92 0.92 0 0 0-0.02 1.34q4.51 4.35 8.53 7.92c7.06 6.25 13.68 13.01 20.47 19.67q0.79 0.78 1.66 1.58 8.11 7.43 16.41 15.56 3.35 3.28 7.61 7.01 3.78 3.31 7.47 7.15c1.43 1.48 3.16 2.36 4.55 3.94a1.71 1.7 43.3 0 1 0.07 2.17q-29.41 38.02-50.52 81.22-12.31 25.18-21.52 51.87-1.71 4.96-3.16 9.55-0.02 0.08-0.1 0.11-0.06 0.02-0.1-0.03-0.17-0.23-0.13 0.05 0.04 0.27 0.06 0.53 0.01 0.17-0.08 0.31-0.14 0.23-0.33 0.22-0.51-0.02-0.32 0.51 0.46 1.3-0.8 1.65 6.65-56.53 27.02-109.67 7.18-18.72 18.46-35.43a0.57 0.56-50.5 0 0-0.06-0.7q-1.96-2.03-3.9-3.83-31.7-29.45-60.91-57.84a0.73 0.72-47.4 0 1-0.04-0.98q23.87-28.25 51.33-56.09c6.49-6.58 13.83-12.51 20.29-19.29a0.59 0.59 0 0 1 0.89 0.03l11.85 14.59z" fill="#6d0000"/>
 <path d="m308.49 117.59q-3.46 0.75-6.74 1.51-41.1 9.55-79.41 27.17-0.08 0.04-4.45 2.24-4.49 2.27-9.72 3.46 11.55-8.74 29.8-19.72 36.19-21.78 77.41-31.73a0.22 0.22 0 0 1 0.24 0.32q-4.42 8.12-7.13 16.75z" fill="#6d0000"/>
 <path d="m162.31 105.54q11.75 13.26 23.56 26.84c6.19 7.11 12.74 14.36 19.65 20.98q0.4 0.38 0.83 0.04l1.82-1.43q5.23-1.19 9.72-3.46 4.37-2.2 4.45-2.24 38.31-17.62 79.41-27.17 3.28-0.76 6.74-1.51-6.25 21.93-4.05 44.42 0.58 5.86 2.42 11.22a0.58 0.58 0 0 1-0.37 0.73c-18.33 6.09-33.81 18.86-45.1 34.15-2.1 2.84-3.85 5.46-6.45 7.87q-45.67 42.16-70.89 99.64-5.94 13.54-10.23 29.42c-3.08 11.41-5.79 21.8-6.95 31.95q-0.13 1.11 0.98 1.16 10.38 0.46 20.63 0.66 9.21 0.18 20.03 0.02 27.81-0.41 57.4-0.82c5.97-0.09 12.3 0.56 18.4 0.23q1.02-0.05 1.6 0.8 25.71 38.4 44.8 80.54a0.5 0.5 0 0 1-0.44 0.71q-6.55 0.19-13.59 0.28-76.32 0.98-138.92 2.63-6.73 0.18-13.59 0.7a0.42 0.42 0 0 0-0.39 0.48q0.77 5.64 1.96 11.35c8.18 39.13 19.5 75.89 39.34 110.22q-5.2-4.34-6.44-6.35-0.81-1.32-2.6-3.39-8.02-9.3-17.7-22.33-19.69-26.51-32.87-52.54-4.22-8.33-8.4-18.53c-0.55-1.36-0.88-2.73-1.52-4.07q-0.73-1.5-1.24-3.15-1.07-3.46-2.66-7.67-0.13-0.35-0.06-0.73 0.09-0.48-0.21-0.85-0.81-1.01-0.79-2.25 0.01-0.58-0.3-1.07-0.78-1.2-0.68-2.59a1.41 1.4 30.7 0 0-0.22-0.85q-0.96-1.52-0.8-3.24 0.03-0.37-0.17-0.68c-0.92-1.39-0.72-2.82-1.12-4.33q-1.21-4.55-1.88-9.08a1.13 1.13 0 0 0-1.14-0.97c-2.73 0.06-5.49-0.3-8.18-0.24q-16.64 0.35-34.2 0.37c-1.32 0-2.58 0.44-3.9 0.5q-12.74 0.6-25.66 0.5-0.54 0-1.03 0.22-0.61 0.28-1.31 0.31-8.41 0.38-17.22 0.58a1.15 1.15 0 0 1-1.17-1.26q0.18-2.12-0.34-4.1-0.57-2.15-0.66-4.29-0.09-2.11-0.61-4.26c-0.5-2.09-0.24-4.06-0.68-6.15q-0.84-4-0.75-8.57c0.02-0.83-0.51-1.62-0.57-2.39q-0.52-7.2-0.45-14.45 0.01-0.5-0.2-0.94-0.47-1.02-0.38-2.36 0.22-3.51-0.19-8.53l68.74-2.99q0.52-0.02 0.6-0.53l1.26-7.95q1.26-0.35 0.8-1.65-0.19-0.53 0.32-0.51 0.19 0.01 0.33-0.22 0.09-0.14 0.08-0.31-0.02-0.26-0.06-0.53-0.04-0.28 0.13-0.05 0.04 0.05 0.1 0.03 0.08-0.03 0.1-0.11 1.45-4.59 3.16-9.55 9.21-26.69 21.52-51.87 21.11-43.2 50.52-81.22a1.71 1.7 43.3 0 0-0.07-2.17c-1.39-1.58-3.12-2.46-4.55-3.94q-3.69-3.84-7.47-7.15-4.26-3.73-7.61-7.01-8.3-8.13-16.41-15.56-0.87-0.8-1.66-1.58c-6.79-6.66-13.41-13.42-20.47-19.67q-4.02-3.57-8.53-7.92a0.92 0.92 0 0 1 0.02-1.34q2.84-2.58 5.03-5.4 2.04-2.62 4.28-4.94c2.31-2.38 4.06-5.05 6.44-7.39q2.58-2.54 4.96-5.26 3.55-4.07 4.8-5.38 11.7-12.33 15.47-15.44 7.33-6.04 13.7-13.07z" fill="#8e0000"/>
 <path d="m580.07 256.85c7.95 9.5 14.84 19.82 19.6 31.31q0.17 0.42-0.08 0.79-0.21 0.32-0.6 0.34-0.47 0.02-0.76-0.35c-9.28-11.89-18.67-23.63-29.26-34.11a2.98 2.93-17.2 0 0-1.59-0.82c-17.6-3.13-35.08-7.43-51.18-14.33-4.18-1.79-9.17-3.93-11.89-7.72-7.73-10.8-11.73-24.48-14.36-37.61a0.7 0.69 83.1 0 0-0.7-0.56q-6.83 0.14-13.45-1.08a0.83 0.83 0 0 1-0.67-0.9q0.08-0.73 0.78-0.94 2.88-0.86 5.82-1.08 10.87-0.81 21.27-0.49 0.91 0.02 1.81 0.23 0.64 0.15 0.19-0.33c-8.6-9.09-17.92-16.68-28.56-22.99q-2.56-1.51 0.4-1.75 1.29-0.1 2.51 0.38c13.7 5.43 26.63 14.82 37.5 24.79q0.39 0.36 0.93 0.42 10.36 1.01 15.54 2.01 36.01 6.98 67.42 27.55c14.29 9.36 26.75 22.69 31.5 39.3a0.6 0.59-12.3 0 1-0.49 0.75c-4.95 0.72-9.82 0.98-14.93 0.67q-18.4-1.1-36.45-4-0.86-0.14-0.3 0.52zm-16.52-48.93q-34.05-14.63-70.68-14.08-0.56 0.01-0.41 0.54c3.37 12.22 8.1 25.55 15.85 35.53q2.64 3.39 6.46 4.88 18.33 7.15 35.92 10.87 31.07 6.57 61.8 9.1 5.3 0.43 10.83 0.91a0.52 0.52 0 0 0 0.48-0.8c-14.72-22.87-35.33-36.23-60.25-46.95z"/>
 <path d="m563.55 207.92c24.92 10.72 45.53 24.08 60.25 46.95a0.52 0.52 0 0 1-0.48 0.8q-5.53-0.48-10.83-0.91-30.73-2.53-61.8-9.1-17.59-3.72-35.92-10.87-3.82-1.49-6.46-4.88c-7.75-9.98-12.48-23.31-15.85-35.53q-0.15-0.53 0.41-0.54 36.63-0.55 70.68 14.08z" fill="#f9f9f9"/>
 <path d="m809.32 286.45q-1.86 0.03-3.73 0.26-2.23 0.27-3.7 0.19c-18.19-1-38.24-9.41-48.75-24.61-6.96-10.06-6.06-23.69 5.82-29.64q1.17-0.11 1.54-0.02 25.02 5.58 49.5 13.14c3.85 1.18 8.12 3.64 9.6 7.63q1.01 2.71 0.07 7.28-2.84 13.8-10.35 25.77z" fill="#282828"/>
 <path d="m247.08 246.4q26.19 29.65 46.72 59.82 49.62 72.88 86.48 154.26 18.88 41.7 32.4 83.69 0.16 0.48 0.63 0.3 8.19-3.06 17.95-5.63c25.34-6.69 50.3-10.83 76.19-14.15q17.04-2.19 33.26-3.1 5.02-0.28 10.18 0.21 0.85 0.08 0.12 0.52c-11.95 7.21-22.42 15.86-31.85 26.58q-5.4 6.14-10.45 12.39-0.39 0.48 0.13 0.15 51.68-33.73 113.23-47.98 1.86-0.43 3.41-1.06 2.43 1.88 5.05 3.86c5.68 4.29 12.12 7.43 18.95 9.7q1.37 0.46-0.05 0.71-32.3 5.75-65.14 16.87-64.22 21.74-122.19 59.09-4.59 2.96-9.06 6.11-0.71 0.5-0.3-0.26 12.07-22.51 26.62-37.86 7.67-8.09 18.99-16.82c2.84-2.19 6.65-7.01 2.88-10.14q-1.58-1.3-4.8-1.16c-3.7 0.16-6.62 1.83-10.13 2.59-38.63 8.42-74.91 28.01-101.89 57.21q-4.72 5.11-8.59 10.43-0.53 0.72-0.43-0.16 0.29-2.85 0-5.74-3.49-34.34-11.23-70.46-7.12-33.22-17.31-60.69-1.71-4.59-4-9.83-1.18-2.7-2.12-5.45-0.85-2.5-1.89-5.01-10.38-25.03-26.97-54.11-19.18-33.62-41.78-61.14-16.25-19.79-38.99-43.53-0.35-0.36-0.13-0.82 0.17-0.35 0.37-0.69 0.19-0.34 0.29-0.71 5.26-20.3 12.21-40.07 1.07-3.06 3.24-7.92z" fill="#bcbcbc"/>
 <path d="m769.61 320.15q-4.29-0.72-6.55-0.45-17.63 2.14-35.8 1.16-5.72-0.3-11.62-0.21-1.93 0.03-2.29 1.87-1.99 10.14-6.49 23.64-4.25 12.77-10.48 20.41c-1.26 1.55-1.83 3.29-3.4 4.61q-0.56 0.48-0.31-0.21 0.34-0.96 0.43-1.92 1.69-16.92-4.42-33.55-0.86-2.34-2.09-4.55-1.1-1.97-2.8-2.66-2.29-0.94-4.31-1.04-4.98-0.24-10.22-0.53-7.83-0.44-15.27-2.24-1.52-0.36-3.09-0.22a0.7 0.7 0 0 1-0.66-1.07q5.7-9.12 12.44-15.98 6.8-6.91 16.23-8.55c17.36-3.02 35.73-2.4 53.09 0.06q22.83 3.23 44.45 8.29 7.57 1.76 15.13 3.25 0.52 0.1 0.47 0.63c-0.6 6.13-0.57 12.05-2.21 18.22-5.25 19.8-16.63 37.88-34.13 49.1q-0.4 0.26-0.15-0.14 14.05-22.2 15.18-48.54 0.11-2.78-0.34-5.67c-0.17-1.08 0.29-1.96-0.02-3.02q-0.17-0.59-0.77-0.69z" fill="#f9f9f9"/>
 <path d="m678.23 441.25a1.94 1.94 0 0 0-3.14 1.23q-0.56 3.9-2.16 7.22-6.69 13.9-17.18 22.89-5.18 4.44-12.03 8.92-1.38 0.9-3.02 0.75c-7.99-0.75-16.27-4.98-22.47-10.27q-0.38-0.34-0.48-0.84-1.89-9.49-2.18-16.41-2.85-68.26 33.52-126.16a1.1 1.09 24.3 0 1 1.23-0.46q11.16 3.37 23.3 4.09 3.45 0.21 7.37-0.4 0.56-0.09 0.76 0.43c4.33 10.94 6.75 21.69 6.83 33.06q0.03 5.27 0.62 10.14a1.13 1.12-11.9 0 0 1.45 0.94c9.1-2.82 16.85-17.55 20.45-26.57q5.38-13.48 7.91-24.77 0.12-0.53 0.65-0.46 12.51 1.57 22.19 1.79 7.44 0.16 16.03 0.31c2.07 0.04 4.13-0.18 6.23-0.3q0.69-0.04 0.59 0.64-0.29 1.96-0.33 3.91-0.03 1.51-0.99 3.22-13.13 23.51-20.23 40.22-11.05 26.03-11.77 58.4-0.37 16.74 5.24 33.18 0.16 0.5 0.02 1c-2.97 10.6-7.45 20.33-11.61 30.64a1.8 1.79-80.4 0 1-1.57 1.12q-9.45 0.45-17.4 0.27-14.55-0.32-28.62-4.74a0.53 0.52 17.6 0 1-0.34-0.65q7.1-22.4 3.4-46.78c-0.31-2.02-0.62-4.21-2.27-5.56z" fill="#282828"/>
 <path d="m26.78 386.22q0.41 5.02 0.19 8.53-0.09 1.34 0.38 2.36 0.21 0.44 0.2 0.94-0.07 7.25 0.45 14.45c0.06 0.77 0.59 1.56 0.57 2.39q-0.09 4.57 0.75 8.57c0.44 2.09 0.18 4.06 0.68 6.15q0.52 2.15 0.61 4.26 0.09 2.14 0.66 4.29 0.52 1.98 0.34 4.1a1.15 1.15 0 0 0 1.17 1.26q8.81-0.2 17.22-0.58 0.7-0.03 1.31-0.31 0.49-0.22 1.03-0.22 12.92 0.1 25.66-0.5c1.32-0.06 2.58-0.5 3.9-0.5q17.56-0.02 34.2-0.37c2.69-0.06 5.45 0.3 8.18 0.24a1.13 1.13 0 0 1 1.14 0.97q0.67 4.53 1.88 9.08c0.4 1.51 0.2 2.94 1.12 4.33q0.2 0.31 0.17 0.68-0.16 1.72 0.8 3.24a1.41 1.4 30.7 0 1 0.22 0.85q-0.1 1.39 0.68 2.59 0.31 0.49 0.3 1.07-0.02 1.24 0.79 2.25 0.3 0.37 0.21 0.85-0.07 0.38 0.06 0.73 1.59 4.21 2.66 7.67 0.51 1.65 1.24 3.15c0.64 1.34 0.97 2.71 1.52 4.07q4.18 10.2 8.4 18.53 13.18 26.03 32.87 52.54 9.68 13.03 17.7 22.33 1.79 2.07 2.6 3.39 1.24 2.01 6.44 6.35l7.24 11.04q1.24 1.89-0.67 0.69-23.97-14.97-44.54-34.3-16.92-15.9-29.66-36.59-17.98-29.22-29.05-63.33-0.33-0.99-0.76-1.95-0.19-0.42-0.65-0.39-26.79 1.71-53.31 3.2-17.05 0.96-32.93 1.41-3 0.08-6.19-0.02-0.51-0.02-0.54-0.53-0.39-7.74-1.22-15.12-2.53-22.59-5.52-46.22-0.95-7.54-2.35-15.4a0.51 0.51 0 0 1 0.46-0.6l21.39-1.62z" fill="#6d0000"/>
 <path d="m727.74 500.81q0.18-1.2 1.08-1.9 0.76-0.6 1.24-1.44c10.15-18.07 16.85-41.09 13.41-61.85q-0.1-0.6 0.18-0.06c10.1 19.59 18.88 44.18 13.69 66.42q-2.18 9.36-5.46 17.35-0.22 0.53-0.79 0.62-9.17 1.55-17.92 3.14-4.53 0.82-9.91 0.67-11.12-0.32-20.33-0.13-8.05 0.18-18.96-1.02-20.57-2.26-35.73-8.25c-16.07-6.35-25.87-19.52-30.82-35.88q-0.42-1.35 0.73-0.51 10.08 7.39 21.93 8.72 2.6 0.29 4.96-0.82 5.78-2.73 10.42-6.4 14.67-11.65 21.85-29.28 0.25-0.62 0.28 0.05 0.87 23.27-7.29 44.81-0.18 0.47 0.03 0.93 0.83 1.85 3.17 2.56 24.48 7.43 50.45 4.13 1.55-0.2 2.97-0.81 0.7-0.3 0.82-1.05z" fill="#f9f9f9"/>
</svg>
